<?xml version="1.0" encoding="UTF-8" standalone="no"?>
<!DOCTYPE svg PUBLIC "-//W3C//DTD SVG 1.1//EN"
 "http://www.w3.org/Graphics/SVG/1.1/DTD/svg11.dtd">
<!-- Generated by graphviz version 2.40.1 (20161225.0304)
 -->
<!-- Title: G Pages: 1 -->
<svg width="432pt" height="292pt"
 viewBox="0.00 0.00 431.68 292.00" xmlns="http://www.w3.org/2000/svg" xmlns:xlink="http://www.w3.org/1999/xlink">
<g id="graph0" class="graph" transform="scale(1 1) rotate(0) translate(4 288)">
<title>G</title>
<polygon fill="#ffffff" stroke="transparent" points="-4,4 -4,-288 427.6753,-288 427.6753,4 -4,4"/>
<g id="clust1" class="cluster">
<title>cluster_Global</title>
<path fill="none" stroke="#c0c0c0" d="M307.0635,-8C307.0635,-8 403.6753,-8 403.6753,-8 409.6753,-8 415.6753,-14 415.6753,-20 415.6753,-20 415.6753,-264 415.6753,-264 415.6753,-270 409.6753,-276 403.6753,-276 403.6753,-276 307.0635,-276 307.0635,-276 301.0635,-276 295.0635,-270 295.0635,-264 295.0635,-264 295.0635,-20 295.0635,-20 295.0635,-14 301.0635,-8 307.0635,-8"/>
<text text-anchor="middle" x="355.3694" y="-263.2" font-family="Times,serif" font-size="11.00" fill="#c0c0c0">Global</text>
</g>
<g id="clust2" class="cluster">
<title>cluster_\JSONFlatner</title>
<path fill="none" stroke="#c0c0c0" d="M315.0635,-16C315.0635,-16 395.6753,-16 395.6753,-16 401.6753,-16 407.6753,-22 407.6753,-28 407.6753,-28 407.6753,-237 407.6753,-237 407.6753,-243 401.6753,-249 395.6753,-249 395.6753,-249 315.0635,-249 315.0635,-249 309.0635,-249 303.0635,-243 303.0635,-237 303.0635,-237 303.0635,-28 303.0635,-28 303.0635,-22 309.0635,-16 315.0635,-16"/>
<text text-anchor="middle" x="355.3694" y="-236.2" font-family="Times,serif" font-size="11.00" fill="#c0c0c0">JSONFlatner</text>
</g>
<!-- \\JSONFlatner\\Flatner -->
<g id="node1" class="node">
<title>\\JSONFlatner\\Flatner</title>
<polygon fill="none" stroke="#000000" points="386.5773,-222 324.1616,-222 324.1616,-186 386.5773,-186 386.5773,-222"/>
<text text-anchor="middle" x="355.3694" y="-200.7" font-family="Courier,monospace" font-size="11.00" fill="#000000">Flatner</text>
</g>
<!-- \\JSONFlatner\\Inflector -->
<g id="node2" class="node">
<title>\\JSONFlatner\\Inflector</title>
<polygon fill="none" stroke="#000000" points="393.2802,-168 317.4586,-168 317.4586,-132 393.2802,-132 393.2802,-168"/>
<text text-anchor="middle" x="355.3694" y="-146.7" font-family="Courier,monospace" font-size="11.00" fill="#000000">Inflector</text>
</g>
<!-- \\JSONFlatner\\FlatnerTest -->
<g id="node3" class="node">
<title>\\JSONFlatner\\FlatnerTest</title>
<polygon fill="none" stroke="#000000" points="399.4821,-114 311.2568,-114 311.2568,-78 399.4821,-78 399.4821,-114"/>
<text text-anchor="middle" x="355.3694" y="-92.7" font-family="Courier,monospace" font-size="11.00" fill="#000000">FlatnerTest</text>
</g>
<!-- \\PHPUnit\\Framework\\TestCase -->
<g id="node5" class="node">
<title>\\PHPUnit\\Framework\\TestCase</title>
<ellipse fill="none" stroke="#000000" cx="119.5318" cy="-96" rx="119.5635" ry="18"/>
<text text-anchor="middle" x="119.5318" y="-91.8" font-family="Times,serif" font-size="14.00" fill="#c0c0c0">\PHPUnit\FrameworkTestCase</text>
</g>
<!-- \\JSONFlatner\\FlatnerTest&#45;&gt;\\PHPUnit\\Framework\\TestCase -->
<g id="edge1" class="edge">
<title>\\JSONFlatner\\FlatnerTest&#45;&gt;\\PHPUnit\\Framework\\TestCase</title>
<path fill="none" stroke="#000000" d="M311.0102,-96C293.1909,-96 271.6403,-96 249.5172,-96"/>
<polygon fill="none" stroke="#000000" points="249.3236,-92.5001 239.3236,-96 249.3236,-99.5001 249.3236,-92.5001"/>
</g>
<!-- \\JSONFlatner\\Helper -->
<g id="node4" class="node">
<title>\\JSONFlatner\\Helper</title>
<polygon fill="none" stroke="#000000" points="382.9773,-60 327.7616,-60 327.7616,-24 382.9773,-24 382.9773,-60"/>
<text text-anchor="middle" x="355.3694" y="-38.7" font-family="Courier,monospace" font-size="11.00" fill="#000000">Helper</text>
</g>
</g>
</svg>
